<mxfile host="Electron" modified="2024-01-03T00:28:27.030Z" agent="Mozilla/5.0 (Windows NT 10.0; Win64; x64) AppleWebKit/537.36 (KHTML, like Gecko) draw.io/22.1.16 Chrome/120.0.6099.109 Electron/28.1.0 Safari/537.36" etag="nwG45rsSDKYg9OM1pBmS" version="22.1.16" type="device">
  <diagram name="Page-1" id="Vis4JMOfrKeuNz5BSusf">
    <mxGraphModel dx="626" dy="1482" grid="1" gridSize="10" guides="1" tooltips="1" connect="1" arrows="1" fold="1" page="1" pageScale="1" pageWidth="850" pageHeight="1100" math="0" shadow="0">
      <root>
        <mxCell id="0" />
        <mxCell id="1" parent="0" />
        <mxCell id="dxBKdVPjS6VxnHgvPAgs-1" value="A-D" style="rounded=0;whiteSpace=wrap;html=1;" vertex="1" parent="1">
          <mxGeometry x="120" y="300" width="120" height="60" as="geometry" />
        </mxCell>
        <mxCell id="dxBKdVPjS6VxnHgvPAgs-3" style="edgeStyle=orthogonalEdgeStyle;rounded=0;orthogonalLoop=1;jettySize=auto;html=1;exitX=0.5;exitY=1;exitDx=0;exitDy=0;" edge="1" parent="1" source="dxBKdVPjS6VxnHgvPAgs-2" target="dxBKdVPjS6VxnHgvPAgs-1">
          <mxGeometry relative="1" as="geometry" />
        </mxCell>
        <mxCell id="dxBKdVPjS6VxnHgvPAgs-2" value="Auto populated" style="rounded=0;whiteSpace=wrap;html=1;" vertex="1" parent="1">
          <mxGeometry x="120" y="70" width="120" height="60" as="geometry" />
        </mxCell>
        <mxCell id="dxBKdVPjS6VxnHgvPAgs-4" value="dont get F&lt;br&gt;" style="text;html=1;align=center;verticalAlign=middle;resizable=0;points=[];autosize=1;strokeColor=none;fillColor=none;" vertex="1" parent="1">
          <mxGeometry x="250" y="315" width="80" height="30" as="geometry" />
        </mxCell>
        <mxCell id="dxBKdVPjS6VxnHgvPAgs-5" value="E, G-I" style="rounded=0;whiteSpace=wrap;html=1;" vertex="1" parent="1">
          <mxGeometry x="340" y="300" width="120" height="60" as="geometry" />
        </mxCell>
        <mxCell id="dxBKdVPjS6VxnHgvPAgs-7" style="edgeStyle=orthogonalEdgeStyle;rounded=0;orthogonalLoop=1;jettySize=auto;html=1;exitX=0.5;exitY=1;exitDx=0;exitDy=0;" edge="1" parent="1" source="dxBKdVPjS6VxnHgvPAgs-6" target="dxBKdVPjS6VxnHgvPAgs-5">
          <mxGeometry relative="1" as="geometry" />
        </mxCell>
        <mxCell id="dxBKdVPjS6VxnHgvPAgs-6" value="Outreach Survey&lt;br&gt;(S)" style="rounded=0;whiteSpace=wrap;html=1;" vertex="1" parent="1">
          <mxGeometry x="340" y="70" width="120" height="60" as="geometry" />
        </mxCell>
        <mxCell id="dxBKdVPjS6VxnHgvPAgs-10" value="J, K" style="rounded=0;whiteSpace=wrap;html=1;" vertex="1" parent="1">
          <mxGeometry x="490" y="300" width="120" height="60" as="geometry" />
        </mxCell>
        <mxCell id="dxBKdVPjS6VxnHgvPAgs-11" style="edgeStyle=orthogonalEdgeStyle;rounded=0;orthogonalLoop=1;jettySize=auto;html=1;exitX=0.5;exitY=1;exitDx=0;exitDy=0;" edge="1" parent="1" source="dxBKdVPjS6VxnHgvPAgs-12" target="dxBKdVPjS6VxnHgvPAgs-10">
          <mxGeometry relative="1" as="geometry" />
        </mxCell>
        <mxCell id="dxBKdVPjS6VxnHgvPAgs-12" value="Outreach Survey&lt;br&gt;(T)" style="rounded=0;whiteSpace=wrap;html=1;" vertex="1" parent="1">
          <mxGeometry x="490" y="70" width="120" height="60" as="geometry" />
        </mxCell>
        <mxCell id="dxBKdVPjS6VxnHgvPAgs-13" value="R" style="rounded=0;whiteSpace=wrap;html=1;" vertex="1" parent="1">
          <mxGeometry x="720" y="300" width="120" height="60" as="geometry" />
        </mxCell>
        <mxCell id="dxBKdVPjS6VxnHgvPAgs-20" style="edgeStyle=orthogonalEdgeStyle;rounded=0;orthogonalLoop=1;jettySize=auto;html=1;exitX=0.5;exitY=1;exitDx=0;exitDy=0;entryX=0;entryY=0.5;entryDx=0;entryDy=0;" edge="1" parent="1" source="dxBKdVPjS6VxnHgvPAgs-15" target="dxBKdVPjS6VxnHgvPAgs-13">
          <mxGeometry relative="1" as="geometry" />
        </mxCell>
        <mxCell id="dxBKdVPjS6VxnHgvPAgs-15" value="1" style="ellipse;whiteSpace=wrap;html=1;" vertex="1" parent="1">
          <mxGeometry x="620" y="170" width="70" height="50" as="geometry" />
        </mxCell>
        <mxCell id="dxBKdVPjS6VxnHgvPAgs-38" style="edgeStyle=orthogonalEdgeStyle;rounded=0;orthogonalLoop=1;jettySize=auto;html=1;exitX=0.5;exitY=1;exitDx=0;exitDy=0;entryX=0.5;entryY=0;entryDx=0;entryDy=0;" edge="1" parent="1" source="dxBKdVPjS6VxnHgvPAgs-16" target="dxBKdVPjS6VxnHgvPAgs-31">
          <mxGeometry relative="1" as="geometry" />
        </mxCell>
        <mxCell id="dxBKdVPjS6VxnHgvPAgs-40" style="edgeStyle=orthogonalEdgeStyle;rounded=0;orthogonalLoop=1;jettySize=auto;html=1;exitX=0.75;exitY=1;exitDx=0;exitDy=0;entryX=0;entryY=0;entryDx=0;entryDy=0;" edge="1" parent="1" source="dxBKdVPjS6VxnHgvPAgs-16" target="dxBKdVPjS6VxnHgvPAgs-26">
          <mxGeometry relative="1" as="geometry">
            <Array as="points">
              <mxPoint x="680" y="20" />
              <mxPoint x="720" y="20" />
            </Array>
          </mxGeometry>
        </mxCell>
        <mxCell id="dxBKdVPjS6VxnHgvPAgs-16" value="TARS&lt;br&gt;(H,G)" style="rounded=0;whiteSpace=wrap;html=1;" vertex="1" parent="1">
          <mxGeometry x="590" y="-60" width="120" height="60" as="geometry" />
        </mxCell>
        <mxCell id="dxBKdVPjS6VxnHgvPAgs-21" style="edgeStyle=orthogonalEdgeStyle;rounded=0;orthogonalLoop=1;jettySize=auto;html=1;exitX=0.5;exitY=1;exitDx=0;exitDy=0;entryX=0.25;entryY=0;entryDx=0;entryDy=0;" edge="1" parent="1" source="dxBKdVPjS6VxnHgvPAgs-17" target="dxBKdVPjS6VxnHgvPAgs-13">
          <mxGeometry relative="1" as="geometry" />
        </mxCell>
        <mxCell id="dxBKdVPjS6VxnHgvPAgs-17" value="2" style="ellipse;whiteSpace=wrap;html=1;" vertex="1" parent="1">
          <mxGeometry x="700" y="170" width="70" height="50" as="geometry" />
        </mxCell>
        <mxCell id="dxBKdVPjS6VxnHgvPAgs-22" style="edgeStyle=orthogonalEdgeStyle;rounded=0;orthogonalLoop=1;jettySize=auto;html=1;exitX=0.5;exitY=1;exitDx=0;exitDy=0;entryX=0.75;entryY=0;entryDx=0;entryDy=0;" edge="1" parent="1" source="dxBKdVPjS6VxnHgvPAgs-18" target="dxBKdVPjS6VxnHgvPAgs-13">
          <mxGeometry relative="1" as="geometry" />
        </mxCell>
        <mxCell id="dxBKdVPjS6VxnHgvPAgs-18" value="3" style="ellipse;whiteSpace=wrap;html=1;" vertex="1" parent="1">
          <mxGeometry x="790" y="170" width="70" height="50" as="geometry" />
        </mxCell>
        <mxCell id="dxBKdVPjS6VxnHgvPAgs-23" style="edgeStyle=orthogonalEdgeStyle;rounded=0;orthogonalLoop=1;jettySize=auto;html=1;exitX=0.5;exitY=1;exitDx=0;exitDy=0;entryX=1;entryY=0.5;entryDx=0;entryDy=0;" edge="1" parent="1" source="dxBKdVPjS6VxnHgvPAgs-19" target="dxBKdVPjS6VxnHgvPAgs-13">
          <mxGeometry relative="1" as="geometry" />
        </mxCell>
        <mxCell id="dxBKdVPjS6VxnHgvPAgs-19" value="4" style="ellipse;whiteSpace=wrap;html=1;" vertex="1" parent="1">
          <mxGeometry x="880" y="170" width="70" height="50" as="geometry" />
        </mxCell>
        <mxCell id="dxBKdVPjS6VxnHgvPAgs-43" style="edgeStyle=orthogonalEdgeStyle;rounded=0;orthogonalLoop=1;jettySize=auto;html=1;exitX=0.5;exitY=1;exitDx=0;exitDy=0;entryX=0.5;entryY=0;entryDx=0;entryDy=0;" edge="1" parent="1" source="dxBKdVPjS6VxnHgvPAgs-24" target="dxBKdVPjS6VxnHgvPAgs-33">
          <mxGeometry relative="1" as="geometry" />
        </mxCell>
        <mxCell id="dxBKdVPjS6VxnHgvPAgs-24" value="Master CM List" style="rounded=0;whiteSpace=wrap;html=1;" vertex="1" parent="1">
          <mxGeometry x="870" y="-60" width="120" height="60" as="geometry" />
        </mxCell>
        <mxCell id="dxBKdVPjS6VxnHgvPAgs-42" style="edgeStyle=orthogonalEdgeStyle;rounded=0;orthogonalLoop=1;jettySize=auto;html=1;exitX=0.5;exitY=1;exitDx=0;exitDy=0;entryX=1;entryY=0;entryDx=0;entryDy=0;" edge="1" parent="1" source="dxBKdVPjS6VxnHgvPAgs-25" target="dxBKdVPjS6VxnHgvPAgs-26">
          <mxGeometry relative="1" as="geometry">
            <Array as="points">
              <mxPoint x="800" y="20" />
              <mxPoint x="760" y="20" />
            </Array>
          </mxGeometry>
        </mxCell>
        <mxCell id="dxBKdVPjS6VxnHgvPAgs-25" value="Outreach Survey&lt;br&gt;(F)" style="rounded=0;whiteSpace=wrap;html=1;" vertex="1" parent="1">
          <mxGeometry x="740" y="-60" width="120" height="60" as="geometry" />
        </mxCell>
        <mxCell id="dxBKdVPjS6VxnHgvPAgs-35" style="edgeStyle=orthogonalEdgeStyle;rounded=0;orthogonalLoop=1;jettySize=auto;html=1;exitX=0.5;exitY=1;exitDx=0;exitDy=0;entryX=0.5;entryY=0;entryDx=0;entryDy=0;" edge="1" parent="1" source="dxBKdVPjS6VxnHgvPAgs-26" target="dxBKdVPjS6VxnHgvPAgs-17">
          <mxGeometry relative="1" as="geometry" />
        </mxCell>
        <mxCell id="dxBKdVPjS6VxnHgvPAgs-26" value="if not TARS&lt;br&gt;&amp;amp; outreach" style="rhombus;whiteSpace=wrap;html=1;" vertex="1" parent="1">
          <mxGeometry x="700" y="80" width="80" height="80" as="geometry" />
        </mxCell>
        <mxCell id="dxBKdVPjS6VxnHgvPAgs-34" style="edgeStyle=orthogonalEdgeStyle;rounded=0;orthogonalLoop=1;jettySize=auto;html=1;exitX=0.5;exitY=1;exitDx=0;exitDy=0;entryX=0.5;entryY=0;entryDx=0;entryDy=0;" edge="1" parent="1" source="dxBKdVPjS6VxnHgvPAgs-30" target="dxBKdVPjS6VxnHgvPAgs-15">
          <mxGeometry relative="1" as="geometry" />
        </mxCell>
        <mxCell id="dxBKdVPjS6VxnHgvPAgs-30" value="if not TARS&amp;nbsp;&lt;br&gt;&amp;amp; not outre" style="rhombus;whiteSpace=wrap;html=1;" vertex="1" parent="1">
          <mxGeometry x="615" y="80" width="80" height="80" as="geometry" />
        </mxCell>
        <mxCell id="dxBKdVPjS6VxnHgvPAgs-36" style="edgeStyle=orthogonalEdgeStyle;rounded=0;orthogonalLoop=1;jettySize=auto;html=1;exitX=0.5;exitY=1;exitDx=0;exitDy=0;entryX=0.5;entryY=0;entryDx=0;entryDy=0;" edge="1" parent="1" source="dxBKdVPjS6VxnHgvPAgs-31" target="dxBKdVPjS6VxnHgvPAgs-18">
          <mxGeometry relative="1" as="geometry" />
        </mxCell>
        <mxCell id="dxBKdVPjS6VxnHgvPAgs-31" value="if TAR(H) &amp;amp;&lt;br&gt;G = PF" style="rhombus;whiteSpace=wrap;html=1;" vertex="1" parent="1">
          <mxGeometry x="790" y="80" width="80" height="80" as="geometry" />
        </mxCell>
        <mxCell id="dxBKdVPjS6VxnHgvPAgs-37" style="edgeStyle=orthogonalEdgeStyle;rounded=0;orthogonalLoop=1;jettySize=auto;html=1;exitX=0.5;exitY=1;exitDx=0;exitDy=0;entryX=0.5;entryY=0;entryDx=0;entryDy=0;" edge="1" parent="1" source="dxBKdVPjS6VxnHgvPAgs-33" target="dxBKdVPjS6VxnHgvPAgs-19">
          <mxGeometry relative="1" as="geometry" />
        </mxCell>
        <mxCell id="dxBKdVPjS6VxnHgvPAgs-33" value="declines discharged and unsuccessful attempts" style="rhombus;whiteSpace=wrap;html=1;" vertex="1" parent="1">
          <mxGeometry x="880" y="80" width="80" height="80" as="geometry" />
        </mxCell>
      </root>
    </mxGraphModel>
  </diagram>
</mxfile>
